<svg id="Layer_1" data-name="Layer 1" xmlns="http://www.w3.org/2000/svg" viewBox="0 0 130 200"><defs><style>.cls-1{fill:#1b1464;}</style></defs><path class="cls-1" d="M32.43,132.91a50.22,50.22,0,0,0,24.62,7c19.32,0,25.3-12.31,25.13-21.54C82,102.82,68,96.15,53.46,96.15H45.08V84.87h8.38c10.94,0,24.79-5.64,24.79-18.81,0-8.89-5.64-16.75-19.49-16.75-8.89,0-17.44,3.93-22.23,7.35L32.6,45.72c5.81-4.28,17.1-8.55,29.07-8.55,21.88,0,31.8,13,31.8,26.5,0,11.45-6.84,21.2-20.52,26.16v.34c13.68,2.74,24.79,13,24.79,28.55,0,17.78-13.85,33.34-40.52,33.34-12.48,0-23.42-3.93-28.89-7.52Z"/></svg>