<svg id="Layer_1" data-name="Layer 1" xmlns="http://www.w3.org/2000/svg" viewBox="0 0 130 200"><defs><style>.cls-1{fill:#1b1464;}</style></defs><path class="cls-1" d="M92.27,49.65A54.57,54.57,0,0,0,81,50.33c-23.6,3.94-36.08,21.2-38.64,39.5h.51C48.16,82.82,57.39,77,69.7,77c19.66,0,33.51,14.19,33.51,35.9,0,20.35-13.85,39.15-36.93,39.15C42.52,152.06,27,133.6,27,104.7c0-21.88,7.86-39.15,18.81-50.09C55,45.55,67.31,39.9,81.33,38.19a72.62,72.62,0,0,1,10.94-.85ZM88,113.77c0-15.91-9.07-25.48-22.91-25.48C56,88.29,47.65,93.93,43.54,102a12.86,12.86,0,0,0-1.71,6.67c.34,18.29,8.72,31.8,24.45,31.8C79.28,140.44,88,129.67,88,113.77Z"/></svg>