<svg id="Layer_1" data-name="Layer 1" xmlns="http://www.w3.org/2000/svg" viewBox="0 0 130 200"><defs><style>.cls-1{fill:#1b1464;}</style></defs><path class="cls-1" d="M27.47,122c0-14,8.38-23.93,22.06-29.75l-.17-.51c-12.31-5.81-17.61-15.39-17.61-25,0-17.61,14.87-29.58,34.36-29.58,21.54,0,32.32,13.51,32.32,27.35,0,9.41-4.62,19.5-18.3,26V91c13.85,5.47,22.4,15.21,22.4,28.72,0,19.32-16.59,32.31-37.79,32.31C41.49,152.06,27.47,138.21,27.47,122Zm59.84-.68c0-13.51-9.4-20-24.45-24.28-13,3.76-20,12.31-20,22.91-.51,11.29,8,21.2,22.23,21.2C78.59,141.12,87.31,132.74,87.31,121.29ZM45.94,65.72c0,11.11,8.37,17.1,21.2,20.52C76.71,83,84.06,76.15,84.06,66.06c0-8.89-5.3-18.12-18.8-18.12C52.78,47.94,45.94,56.15,45.94,65.72Z"/></svg>