<svg id="Layer_1" data-name="Layer 1" xmlns="http://www.w3.org/2000/svg" viewBox="0 0 130 200"><defs><style>.cls-1{fill:#1b1464;}</style></defs><path class="cls-1" d="M37.56,139.58c3.25.34,7,0,12.14-.51A42,42,0,0,0,73,128.3c7.35-6.67,12.65-16.42,14.7-29.58h-.51c-6.15,7.52-15,12-26.16,12-20,0-32.82-15-32.82-34,0-21,15.21-39.49,38-39.49S102.87,55.63,102.87,84c0,24.44-8.21,41.54-19.15,52.14-8.55,8.38-20.34,13.51-32.31,14.88a70.47,70.47,0,0,1-13.85.85ZM43,75.64c0,13.85,8.38,23.59,21.37,23.59,10.09,0,17.95-5,21.89-11.62a10,10,0,0,0,1.36-5.48c0-19-7-33.51-22.73-33.51C52.09,48.62,43,59.91,43,75.64Z"/></svg>