<svg id="Layer_1" data-name="Layer 1" xmlns="http://www.w3.org/2000/svg" viewBox="0 0 130 200">
    <defs>
        <style>
            .cls-1,
            .cls-2 {
                fill: none;
            }

            .cls-2 {
                stroke: #000;
            }
        </style>
    </defs>
    <path class="cls-1"
        d="M.5-.5h94c-9.83,13.35-19.23,17.59-26,19-13,2.7-21.45-3.92-31,1-8.1,4.17-11.44,13.8-13,21-11,12-16-.67-24-1Z" />
    <path class="cls-1"
        d="M.5.5c18.38,15.32,23.11,28.63,24,38,.71,7.43-1.16,10.68-1,24,.19,16.15,3.11,25.73,4,32,1.77,12.48-1.71,31.69-27,60Z" />
    <path class="cls-1"
        d="M94.5-.5h36v88a63.12,63.12,0,0,1-13-20c-5-12.4-2.86-19.3-6-27-3.29-8.09-12.62-17.69-40-23,0-6-9-11,0-18Z" />
    <path class="cls-1"
        d="M.5,154.5v45h49c-4.18-8.31-10.61-17.43-20-19-5.44-.91-8.34,1.31-13,0C11.11,179,4.81,173.15.5,154.5Z" />
    <path class="cls-1"
        d="M115.5,59.5c-3.35,4.36-9.64,12.56-11,24-.86,7.26,1,9.66,2,19,1.37,12.75-.56,22.61-2,30-4.71,24.13-22.28,27.16-26,50a53.93,53.93,0,0,0,0,17h52V45.5A63,63,0,0,0,115.5,59.5Z" />
    <path class="cls-2"
        d="M89.37,76.25l-.18.73-.73,2.37-.67,2.49-.24.85-.79,1-.25,2-.72.36-.25,1.28L82.93,89l-1,3.34-1.64,1.58-1,.43L78,96.49l-.25,1.39h-1a9.83,9.83,0,0,1-5,4.26l-2-.43-4.25,2.37-.61,2c0,.57.44,1.68,1.46,3.34a13.93,13.93,0,0,1,1.76,3.89l-.37.61a10.49,10.49,0,0,1,.19,1.76,5.73,5.73,0,0,1-1.4,3.83l-2.61-.73-1,.37-2,2.24-1-.24a58.8,58.8,0,0,1-1.27-13.79,32.42,32.42,0,0,1,.67-5.66l2.25-3.83,1.33-.73,1-1.27,1.21-.37.37-.6,1.39-1,1.22.67,1.64-.24c.2-.89.32-1.54.37-2v-.06l1.21-1a2.67,2.67,0,0,0,.06-.49,4.18,4.18,0,0,0-.3-1.46q2.19-2.18,4.62-8C77.28,77.42,78,74.51,78,72.6h.36l1-.36V70.9L78.92,70l1-.37-1-1.33.42-1-.24-.12-.85-.36L76.73,66l-.43.36v-.73l-1.33,1-.25-3.22-1,.61-1.94-3a46.23,46.23,0,0,0-7.84-4.25l-2.37.36-1.28-.36-1,1h-1v.37l-1-.79-1.64.42-1.34-.42-.6,1,.36.73-.36.24L53,60.81v.61h-2l-.36,1.64h-.67a7.63,7.63,0,0,1-1.58,3.58v3.59l-.67,1v.37A20.06,20.06,0,0,0,48,73.69c0,.49.08,1,.13,1.65a9.59,9.59,0,0,0,1.27,4.49l.24.25v1.39l1.4,2a7.86,7.86,0,0,0,4.56,1.88l1.28-.85a18.61,18.61,0,0,0,2-9.3,23.58,23.58,0,0,0-.24-3.28l-.43-.24-1.58.61L55,74.85H54.3l-.24-2-.36-.24,2.37-3L58.68,69l6.44,2.86,4,4.38v2.61l.37,1-1.4,1.89-1,.36-.25.61h-.36c-.16.4-1,1.07-2.61,2h-.67l-4,2v.61l-2,.73a20.15,20.15,0,0,1-10.82-5.35l-2.25-5.84-.36-.36q-3.35-6.81-3.34-9.91A9.16,9.16,0,0,1,40.63,65q1.93-3.33,7.6-7.84a17.78,17.78,0,0,1,4.55-2.91,20,20,0,0,1,7-1A39.43,39.43,0,0,1,73.39,55.7,13,13,0,0,1,78,58.2h.36a78.28,78.28,0,0,1,7.23,4.19l.61,2c.57.24,1.28,1.39,2.13,3.46a13.55,13.55,0,0,1,1.09,4l-.61,1,.61,1.4ZM67.73,134.59l-.6,2,.36.61h-.61v1.39l-4.37-.36L57.28,135a25,25,0,0,0,.61-5.05,13.76,13.76,0,0,0-.24-2.55l1-.36.61-.61A74.73,74.73,0,0,1,67.13,130l-.25,1.4.61.61Z" />
    <path class="cls-1"
        d="M130.5,199.5v-59c-4.34,12.26-10.33,17.49-15,20-3.82,2.06-5.29,1.5-10,4-9.1,4.84-11.63,11.19-16,15-7.39,6.44-14.49.12-36,1a129.76,129.76,0,0,0-18,2c-6,7,0,11.33,0,17Z" />
</svg>