<svg id="Layer_1" data-name="Layer 1" xmlns="http://www.w3.org/2000/svg" viewBox="0 0 130 200"><defs><style>.cls-1{fill:#fff;}.cls-2{fill:#00123a;}.cls-3{fill:#000e37;}</style></defs><rect class="cls-1" width="130" height="200"/><path class="cls-2" d="M23.11,78.3A11.81,11.81,0,0,1,12.7,69.36a25.1,25.1,0,0,1-.67-4.5C11.12,47.56,29.46,35.27,33.4,32.8,55.49,19,93.14,22,109.27,45.63c9.44,13.85,12.28,36,3.2,47-2,2.42-7,6.24-17.09,13.89-8,6.07-11.38,8.1-13.89,12.82a22.33,22.33,0,0,0-2.32,7A11.9,11.9,0,0,1,67.5,136.45H52.31a11.8,11.8,0,0,1-11.75-13.13,36.69,36.69,0,0,1,3-10.91c4.82-10.6,14.93-18.9,19.24-22.44,7.59-6.23,13.5-9,15-16,.24-1.17,1-5.12-1.07-8.55-3.75-6.17-14.94-7.77-22.44-3.2A16.84,16.84,0,0,0,49.3,66.8c-5.91,8.27-16.06,12.42-26.19,11.5Z"/><rect class="cls-3" x="42.48" y="143.39" width="37.4" height="32.05" rx="10.34"/><path class="cls-2" d="M19.32,19.28a1.77,1.77,0,0,1,1.57,1.35,3.47,3.47,0,0,1,.11.67c.13,2.62-2.63,4.47-3.23,4.84-3.33,2.08-9,1.64-11.45-1.93-1.43-2.09-1.86-5.43-.49-7.1A21.61,21.61,0,0,1,8.42,15c1.2-.91,1.71-1.22,2.09-1.93A3.17,3.17,0,0,0,10.86,12a1.79,1.79,0,0,1,1.76-1.53h2.3a1.78,1.78,0,0,1,1.77,2,6,6,0,0,1-.45,1.65,10.31,10.31,0,0,1-2.91,3.38c-1.14.95-2,1.37-2.25,2.42a1.76,1.76,0,0,0,.16,1.29,2.6,2.6,0,0,0,3.38.49,2.51,2.51,0,0,0,.75-.7,4.34,4.34,0,0,1,4-1.73Z"/><rect class="cls-3" x="10.75" y="4.61" width="5.64" height="4.84" rx="1.56"/></svg>