<svg xmlns="http://www.w3.org/2000/svg" viewBox="0 0 130 200"><defs><style>.cls-1{fill:#fff;}.cls-2{fill:#ffb4c1;}.cls-3{fill:#7d12b2;}.cls-4{fill:#a112b2;}.cls-5{fill:#3e008a;}.cls-6{fill:#f29fff;}.cls-7{fill:#c16ddf;}.cls-8{opacity:0.21;}</style></defs><g id="Background"><rect class="cls-1" width="130" height="200"/></g><g id="Card"><polygon class="cls-2" points="65 73.77 57.43 78.14 65 82.51 72.57 78.14 65 73.77"/><polygon class="cls-3" points="65 82.51 65 91.26 72.57 86.89 72.57 78.14 65 82.51"/><polygon class="cls-4" points="57.43 78.14 57.43 86.89 65 91.26 65 82.51 57.43 78.14"/><polygon class="cls-2" points="57.43 78.14 49.86 82.51 57.43 86.89 65 82.51 57.43 78.14"/><polygon class="cls-5" points="57.43 86.89 57.43 95.63 65 91.26 65 82.51 57.43 86.89"/><polygon class="cls-4" points="49.86 82.51 49.86 91.26 57.43 95.63 57.43 86.89 49.86 82.51"/><polygon class="cls-2" points="72.57 78.14 65 82.51 72.57 86.89 80.14 82.51 72.57 78.14"/><polygon class="cls-3" points="72.57 86.89 72.57 95.63 80.14 91.26 80.14 82.51 72.57 86.89"/><polygon class="cls-6" points="65 82.51 65 91.26 72.57 95.63 72.57 86.89 65 82.51"/><polygon class="cls-2" points="80.14 82.51 72.57 86.89 80.14 91.26 87.71 86.89 80.14 82.51"/><polygon class="cls-3" points="80.14 91.26 80.14 100 87.71 95.63 87.71 86.89 80.14 91.26"/><polygon class="cls-6" points="72.57 86.89 72.57 95.63 80.14 100 80.14 91.26 72.57 86.89"/><polygon class="cls-2" points="87.71 86.89 80.14 91.26 87.71 95.63 95.29 91.26 87.71 86.89"/><polygon class="cls-3" points="87.71 95.63 87.71 104.37 95.29 100 95.29 91.26 87.71 95.63"/><polygon class="cls-6" points="80.14 91.26 80.14 100 87.71 104.37 87.71 95.63 80.14 91.26"/><polygon class="cls-2" points="95.29 91.26 87.71 95.63 95.29 100 102.86 95.63 95.29 91.26"/><polygon class="cls-3" points="95.29 100 95.29 108.74 102.86 104.37 102.86 95.63 95.29 100"/><polygon class="cls-6" points="87.71 95.63 87.71 104.37 95.29 108.74 95.29 100 87.71 95.63"/><polygon class="cls-2" points="102.86 95.63 95.29 100 102.86 104.37 110.43 100 102.86 95.63"/><polygon class="cls-5" points="102.86 104.37 102.86 113.11 110.43 108.74 110.43 100 102.86 104.37"/><polygon class="cls-6" points="95.29 100 95.29 108.74 102.86 113.11 102.86 104.37 95.29 100"/><polygon class="cls-2" points="65 91.26 57.43 95.63 65 100 72.57 95.63 65 91.26"/><polygon class="cls-3" points="65 100 65 108.74 72.57 104.37 72.57 95.63 65 100"/><polygon class="cls-4" points="57.43 95.63 57.43 104.37 65 108.74 65 100 57.43 95.63"/><polygon class="cls-2" points="57.43 95.63 49.86 100 57.43 104.37 65 100 57.43 95.63"/><polygon class="cls-5" points="57.43 104.37 57.43 113.11 65 108.74 65 100 57.43 104.37"/><polygon class="cls-4" points="49.86 100 49.86 108.74 57.43 113.11 57.43 104.37 49.86 100"/><polygon class="cls-2" points="49.86 100 42.29 104.37 49.86 108.74 57.43 104.37 49.86 100"/><polygon class="cls-5" points="49.86 108.74 49.86 117.48 57.43 113.11 57.43 104.37 49.86 108.74"/><polygon class="cls-4" points="42.29 104.37 42.29 113.11 49.86 117.48 49.86 108.74 42.29 104.37"/><polygon class="cls-2" points="42.29 104.37 34.71 108.74 42.29 113.11 49.86 108.74 42.29 104.37"/><polygon class="cls-5" points="42.29 113.11 42.29 121.86 49.86 117.48 49.86 108.74 42.29 113.11"/><polygon class="cls-4" points="34.71 108.74 34.71 117.48 42.29 121.86 42.29 113.11 34.71 108.74"/><polygon class="cls-2" points="34.71 108.74 27.14 113.11 34.71 117.48 42.29 113.11 34.71 108.74"/><polygon class="cls-5" points="34.71 117.48 34.71 126.23 42.29 121.86 42.29 113.11 34.71 117.48"/><polygon class="cls-6" points="27.14 113.11 27.14 121.86 34.71 126.23 34.71 117.48 27.14 113.11"/><polygon class="cls-2" points="72.57 95.63 65 100 72.57 104.37 80.14 100 72.57 95.63"/><polygon class="cls-3" points="72.57 104.37 72.57 113.11 80.14 108.74 80.14 100 72.57 104.37"/><polygon class="cls-6" points="65 100 65 108.74 72.57 113.11 72.57 104.37 65 100"/><polygon class="cls-2" points="80.14 100 72.57 104.37 80.14 108.74 87.71 104.37 80.14 100"/><polygon class="cls-3" points="80.14 108.74 80.14 117.49 87.71 113.11 87.71 104.37 80.14 108.74"/><polygon class="cls-6" points="72.57 104.37 72.57 113.11 80.14 117.49 80.14 108.74 72.57 104.37"/><polygon class="cls-2" points="87.71 104.37 80.14 108.74 87.71 113.11 95.28 108.74 87.71 104.37"/><polygon class="cls-3" points="87.71 113.11 87.71 121.86 95.28 117.49 95.28 108.74 87.71 113.11"/><polygon class="cls-6" points="80.14 108.74 80.14 117.49 87.71 121.86 87.71 113.11 80.14 108.74"/><polygon class="cls-2" points="95.29 108.74 87.71 113.11 95.29 117.48 102.86 113.11 95.29 108.74"/><polygon class="cls-5" points="95.29 117.48 95.29 126.23 102.86 121.86 102.86 113.11 95.29 117.48"/><polygon class="cls-6" points="87.71 113.11 87.71 121.86 95.29 126.23 95.29 117.48 87.71 113.11"/><polygon class="cls-2" points="65 56.28 57.43 60.66 65 65.03 72.57 60.66 65 56.28"/><polygon class="cls-3" points="65 65.03 65 73.77 72.57 69.4 72.57 60.66 65 65.03"/><polygon class="cls-4" points="57.43 60.66 57.43 69.4 65 73.77 65 65.03 57.43 60.66"/><polygon class="cls-2" points="57.43 60.66 49.86 65.03 57.43 69.4 65 65.03 57.43 60.66"/><polygon class="cls-5" points="57.43 69.4 57.43 78.14 65 73.77 65 65.03 57.43 69.4"/><polygon class="cls-4" points="49.86 65.03 49.86 73.77 57.43 78.14 57.43 69.4 49.86 65.03"/><polygon class="cls-2" points="49.86 65.03 42.29 69.4 49.86 73.77 57.43 69.4 49.86 65.03"/><polygon class="cls-5" points="49.86 73.77 49.86 82.51 57.43 78.14 57.43 69.4 49.86 73.77"/><polygon class="cls-4" points="42.29 69.4 42.29 78.14 49.86 82.51 49.86 73.77 42.29 69.4"/><polygon class="cls-2" points="49.86 82.51 42.29 86.89 49.86 91.26 57.43 86.89 49.86 82.51"/><polygon class="cls-5" points="49.86 91.26 49.86 100 57.43 95.63 57.43 86.89 49.86 91.26"/><polygon class="cls-4" points="42.29 86.89 42.29 95.63 49.86 100 49.86 91.26 42.29 86.89"/><polygon class="cls-2" points="42.29 69.4 34.71 73.77 42.29 78.14 49.86 73.77 42.29 69.4"/><polygon class="cls-5" points="42.29 78.14 42.29 86.89 49.86 82.51 49.86 73.77 42.29 78.14"/><polygon class="cls-4" points="34.71 73.77 34.71 82.51 42.29 86.89 42.29 78.14 34.71 73.77"/><polygon class="cls-2" points="42.29 86.89 34.71 91.26 42.29 95.63 49.86 91.26 42.29 86.89"/><polygon class="cls-5" points="42.29 95.63 42.29 104.37 49.86 100 49.86 91.26 42.29 95.63"/><polygon class="cls-4" points="34.71 91.26 34.71 100 42.29 104.37 42.29 95.63 34.71 91.26"/><polygon class="cls-2" points="34.71 73.77 27.14 78.14 34.71 82.51 42.29 78.14 34.71 73.77"/><polygon class="cls-5" points="34.71 82.51 34.71 91.26 42.29 86.89 42.29 78.14 34.71 82.51"/><polygon class="cls-4" points="27.14 78.14 27.14 86.89 34.71 91.26 34.71 82.51 27.14 78.14"/><polygon class="cls-2" points="34.71 91.26 27.14 95.63 34.71 100 42.29 95.63 34.71 91.26"/><polygon class="cls-5" points="34.71 100 34.71 108.74 42.29 104.37 42.29 95.63 34.71 100"/><polygon class="cls-4" points="27.14 95.63 27.14 104.37 34.71 108.74 34.71 100 27.14 95.63"/><polygon class="cls-2" points="27.14 78.14 19.57 82.51 27.14 86.89 34.71 82.51 27.14 78.14"/><polygon class="cls-5" points="27.14 86.89 27.14 95.63 34.71 91.26 34.71 82.51 27.14 86.89"/><polygon class="cls-4" points="19.57 82.51 19.57 91.26 27.14 95.63 27.14 86.89 19.57 82.51"/><polygon class="cls-2" points="27.14 95.63 19.57 100 27.14 104.37 34.71 100 27.14 95.63"/><polygon class="cls-5" points="27.14 104.37 27.14 113.11 34.71 108.74 34.71 100 27.14 104.37"/><polygon class="cls-6" points="19.57 100 19.57 108.74 27.14 113.11 27.14 104.37 19.57 100"/><polygon class="cls-2" points="19.57 82.51 12 86.89 19.57 91.26 27.14 86.89 19.57 82.51"/><polygon class="cls-5" points="19.57 91.26 19.57 100 27.14 95.63 27.14 86.89 19.57 91.26"/><polygon class="cls-6" points="12 86.89 12 95.63 19.57 100 19.57 91.26 12 86.89"/><polygon class="cls-2" points="72.57 60.66 65 65.03 72.57 69.4 80.14 65.03 72.57 60.66"/><polygon class="cls-3" points="72.57 69.4 72.57 78.14 80.14 73.77 80.14 65.03 72.57 69.4"/><polygon class="cls-6" points="65 65.03 65 73.77 72.57 78.14 72.57 69.4 65 65.03"/><polygon class="cls-2" points="80.14 65.03 72.57 69.4 80.14 73.77 87.71 69.4 80.14 65.03"/><polygon class="cls-3" points="80.14 73.77 80.14 82.51 87.71 78.14 87.71 69.4 80.14 73.77"/><polygon class="cls-6" points="72.57 69.4 72.57 78.14 80.14 82.51 80.14 73.77 72.57 69.4"/><polygon class="cls-2" points="87.71 69.4 80.14 73.77 87.71 78.14 95.29 73.77 87.71 69.4"/><polygon class="cls-3" points="87.71 78.14 87.71 86.89 95.29 82.51 95.29 73.77 87.71 78.14"/><polygon class="cls-6" points="80.14 73.77 80.14 82.51 87.71 86.89 87.71 78.14 80.14 73.77"/><polygon class="cls-2" points="95.29 73.77 87.71 78.14 95.29 82.51 102.86 78.14 95.29 73.77"/><polygon class="cls-3" points="95.29 82.51 95.29 91.26 102.86 86.89 102.86 78.14 95.29 82.51"/><polygon class="cls-6" points="87.71 78.14 87.71 86.89 95.29 91.26 95.29 82.51 87.71 78.14"/><polygon class="cls-2" points="102.86 78.14 95.29 82.51 102.86 86.89 110.43 82.51 102.86 78.14"/><polygon class="cls-3" points="102.86 86.89 102.86 95.63 110.43 91.26 110.43 82.51 102.86 86.89"/><polygon class="cls-6" points="95.29 82.51 95.29 91.26 102.86 95.63 102.86 86.89 95.29 82.51"/><polygon class="cls-2" points="110.43 82.51 102.86 86.89 110.43 91.26 118 86.89 110.43 82.51"/><polygon class="cls-5" points="110.43 91.26 110.43 100 118 95.63 118 86.89 110.43 91.26"/><polygon class="cls-6" points="102.86 86.89 102.86 95.63 110.43 100 110.43 91.26 102.86 86.89"/><polygon class="cls-7" points="65 108.74 34.71 126.23 65 143.72 95.29 126.23 65 108.74"/><polygon class="cls-2" points="65 108.74 57.43 113.11 65 117.49 72.57 113.11 65 108.74"/><polygon class="cls-2" points="65 117.49 57.43 121.86 65 126.23 72.57 121.86 65 117.49"/><polygon class="cls-2" points="49.86 117.49 42.29 121.86 49.86 126.23 57.43 121.86 49.86 117.49"/><polygon class="cls-2" points="49.86 126.23 42.29 130.6 49.86 134.97 57.43 130.6 49.86 126.23"/><polygon class="cls-2" points="80.14 117.49 72.57 121.86 80.14 126.23 87.71 121.86 80.14 117.49"/><polygon class="cls-2" points="80.14 126.23 72.57 130.6 80.14 134.97 87.71 130.6 80.14 126.23"/><polygon class="cls-2" points="65 126.23 57.43 130.6 65 134.97 72.57 130.6 65 126.23"/><polygon class="cls-2" points="65 134.97 57.43 139.34 65 143.71 72.57 139.34 65 134.97"/><polygon class="cls-8" points="65 108.74 65 143.72 34.71 126.23 65 108.74"/></g></svg>